<svg width="64" height="64" viewBox="0 0 64 64" fill="none" xmlns="http://www.w3.org/2000/svg">
<path d="M32 64C49.6731 64 64 49.6731 64 32C64 14.3269 49.6731 0 32 0C14.3269 0 0 14.3269 0 32C0 49.6731 14.3269 64 32 64Z" fill="#FFE121"/>
<path d="M30.5998 15.2V36.8C24.5998 36.8 19.7998 32 19.7998 26C19.7998 20 24.5998 15.2 30.5998 15.2ZM33.3998 48.7999V27.2C39.3998 27.2 44.1998 32 44.1998 38C44.1998 44 39.3998 48.7999 33.3998 48.7999ZM38.4998 15.2C41.2998 15.2 43.5998 17.5 43.5998 20.3C43.5998 23.1 41.2998 25.4 38.4998 25.4C35.6998 25.4 33.3998 23.1 33.3998 20.3C33.3998 17.5 35.6998 15.2 38.4998 15.2ZM25.4998 38.6C28.2998 38.6 30.5998 40.9 30.5998 43.7C30.5998 46.5 28.2998 48.7999 25.4998 48.7999C22.6998 48.7999 20.3998 46.5 20.3998 43.7C20.3998 40.9 22.6998 38.6 25.4998 38.6Z" fill="black"/>
</svg>
